<?xml version="1.0" encoding="UTF-8"?>
<svg width="195px" height="76px" viewBox="0 0 195 76" version="1.1" xmlns="http://www.w3.org/2000/svg" xmlns:xlink="http://www.w3.org/1999/xlink">
    <!-- Generator: Sketch 51.2 (57519) - http://www.bohemiancoding.com/sketch -->
    <title>chromapolis-logo</title>
    <desc>Created with Sketch.</desc>
    <defs>
        <polygon id="path-1" points="0.2949375 0.199157073 16.3196534 0.199157073 16.3196534 24.097561 0.2949375 24.097561"></polygon>
        <polygon id="path-3" points="0 75.9810927 194.799091 75.9810927 194.799091 0 0 0"></polygon>
    </defs>
    <g id="screens" stroke="none" stroke-width="1" fill="none" fill-rule="evenodd">
        <g id="desktop" transform="translate(-82.000000, -34.000000)">
            <g id="hero">
                <g id="header" transform="translate(82.000000, 34.000000)">
                    <g id="chromapolis-logo">
                        <g id="Page-1">
                            <path d="M18.1916165,59.6639668 L22.526304,59.6639668 C21.6728097,65.2019571 17.2066449,68.8280839 11.6247699,68.8280839 C4.63025284,68.8280839 0.000110795455,64.0152449 0.000110795455,56.8293522 C0.000110795455,49.6434595 4.63025284,44.8306205 11.6247699,44.8306205 C17.2066449,44.8306205 21.6728097,48.457118 22.526304,53.9947376 L18.1916165,53.9947376 C17.3709915,50.7645522 15.1052244,48.6220937 11.6576392,48.6220937 C7.22434375,48.6220937 4.26869034,51.9178985 4.26869034,56.8293522 C4.26869034,61.7408059 7.22434375,65.0373522 11.6576392,65.0373522 C15.1052244,65.0373522 17.3709915,62.8948937 18.1916165,59.6639668" id="Fill-1" fill="#FEFEFE"></path>
                            <path d="M26.6323835,43.0179649 L30.6055085,43.0179649 L30.6055085,54.19256 L30.6712472,54.19256 C31.918804,52.7418868 33.6265313,52.0827259 35.2027813,52.0827259 C38.9790597,52.0827259 41.6388892,55.2139259 41.6388892,59.5652039 L41.6388892,68.3993698 L37.6657642,68.3993698 L37.6657642,59.7961698 C37.6657642,57.2581405 36.2863608,55.5438771 34.2174403,55.5438771 C32.1160199,55.5438771 30.6055085,57.1595259 30.6055085,59.5652039 L30.6055085,68.3993698 L26.6323835,68.3993698 L26.6323835,43.0179649 Z" id="Fill-3" fill="#FEFEFE"></path>
                            <path d="M45.9083182,52.577319 L49.8814432,52.577319 L49.8814432,54.5551727 L49.9471818,54.5551727 C50.6370682,52.9402654 51.884625,52.0827629 53.2965284,52.0827629 C53.7563295,52.0827629 54.2161307,52.115758 54.6759318,52.2473678 L54.6759318,55.906119 C54.2161307,55.7745093 53.7563295,55.708519 53.362267,55.708519 C51.2604773,55.708519 49.8814432,57.6863727 49.8814432,60.6863337 L49.8814432,68.3994068 L45.9083182,68.3994068 L45.9083182,52.577319 Z" id="Fill-5" fill="#FEFEFE"></path>
                            <path d="M68.5997813,60.4883259 C68.5997813,57.52136 66.9249233,55.5438771 64.4294403,55.5438771 C61.9343267,55.5438771 60.2590994,57.52136 60.2590994,60.4883259 C60.2590994,63.4552917 61.9343267,65.4331454 64.4294403,65.4331454 C66.9249233,65.4331454 68.5997813,63.4552917 68.5997813,60.4883259 M56.3188437,60.4883259 C56.3188437,55.4448917 59.5699517,52.0827259 64.4294403,52.0827259 C69.2896676,52.0827259 72.5404063,55.4448917 72.5404063,60.4883259 C72.5404063,65.53176 69.2896676,68.8939259 64.4294403,68.8939259 C59.5699517,68.8939259 56.3188437,65.53176 56.3188437,60.4883259" id="Fill-7" fill="#FEFEFE"></path>
                            <path d="M76.3177557,52.577319 L80.2908807,52.577319 L80.2908807,54.1922263 L80.3566193,54.1922263 C81.6699148,52.774919 83.345142,52.0827629 85.0196307,52.0827629 C86.8255966,52.0827629 88.5986932,52.9072702 89.7808807,54.2252215 C91.291392,52.7419239 93.1959659,52.0827629 95.0348011,52.0827629 C99.1722727,52.0827629 102.160795,55.2139629 102.160795,59.565241 L102.160795,68.3994068 L98.1869318,68.3994068 L98.1869318,59.7962068 C98.1869318,57.2581776 96.8078977,55.5439141 94.7393466,55.5439141 C92.6375568,55.5439141 91.258892,57.1591922 91.258892,59.565241 L91.258892,68.3994068 L87.2853977,68.3994068 L87.2853977,59.7962068 C87.2853977,57.2581776 85.9059943,55.5439141 83.8703125,55.5439141 C81.7685227,55.5439141 80.2908807,57.1591922 80.2908807,59.565241 L80.2908807,68.3994068 L76.3177557,68.3994068 L76.3177557,52.577319 Z" id="Fill-9" fill="#FEFEFE"></path>
                            <path d="M117.661006,60.4883259 C117.661006,57.4883649 115.986148,55.3789015 113.654273,55.3789015 C111.290636,55.3789015 109.615778,57.4883649 109.615778,60.4883259 C109.615778,63.4882868 111.290636,65.5977502 113.654273,65.5977502 C115.986148,65.5977502 117.661006,63.4882868 117.661006,60.4883259 M105.609415,60.4883259 C105.609415,55.6098673 108.729045,52.0827259 113.030864,52.0827259 C114.639614,52.0827259 116.314472,52.7418868 117.595267,54.19256 L117.661006,54.19256 L117.661006,52.577282 L121.6345,52.577282 L121.6345,68.3993698 L117.661006,68.3993698 L117.661006,66.7840917 L117.595267,66.7840917 C116.314472,68.2347649 114.639614,68.8939259 113.030864,68.8939259 C108.729045,68.8939259 105.609415,65.3667844 105.609415,60.4883259" id="Fill-11" fill="#FEFEFE"></path>
                            <g id="Group-15" transform="translate(125.937500, 51.883532)">
                                <mask id="mask-2" fill="white">
                                    <use xlink:href="#path-1"></use>
                                </mask>
                                <g id="Clip-14"></g>
                                <path d="M4.26843182,8.6377522 C4.26843182,11.6377132 5.94292045,13.7141815 8.27479545,13.7141815 C10.6388011,13.7141815 12.3132898,11.6377132 12.3132898,8.6377522 C12.3132898,5.63779122 10.6388011,3.49533268 8.27479545,3.49533268 C5.94292045,3.49533268 4.26843182,5.63779122 4.26843182,8.6377522 M4.33417045,14.933518 L4.26843182,14.933518 L4.26843182,24.0976351 L0.2949375,24.0976351 L0.2949375,0.726708293 L4.26843182,0.726708293 L4.26843182,2.34198634 L4.33417045,2.34198634 C5.64709659,0.85868878 7.22408523,0.199157073 8.89857386,0.199157073 C13.200392,0.199157073 16.3196534,3.75929366 16.3196534,8.6377522 C16.3196534,13.5165815 13.232892,17.0103571 8.93144318,17.0103571 C7.15834659,17.0103571 5.38451136,16.2188449 4.33417045,14.933518" id="Fill-13" fill="#FEFEFE" mask="url(#mask-2)"></path>
                            </g>
                            <path d="M157.494003,60.4883259 C157.494003,57.52136 155.819514,55.5438771 153.323662,55.5438771 C150.828548,55.5438771 149.153321,57.52136 149.153321,60.4883259 C149.153321,63.4552917 150.828548,65.4331454 153.323662,65.4331454 C155.819514,65.4331454 157.494003,63.4552917 157.494003,60.4883259 M145.213065,60.4883259 C145.213065,55.4448917 148.464173,52.0827259 153.323662,52.0827259 C158.183889,52.0827259 161.434997,55.4448917 161.434997,60.4883259 C161.434997,65.53176 158.183889,68.8939259 153.323662,68.8939259 C148.464173,68.8939259 145.213065,65.53176 145.213065,60.4883259" id="Fill-16" fill="#FEFEFE"></path>
                            <mask id="mask-4" fill="white">
                                <use xlink:href="#path-3"></use>
                            </mask>
                            <g id="Clip-19"></g>
                            <polygon id="Fill-18" fill="#FEFEFE" mask="url(#mask-4)" points="165.212273 68.3992585 169.185398 68.3992585 169.185398 43.0178537 165.212273 43.0178537"></polygon>
                            <path d="M173.78267,68.3992585 L177.756165,68.3992585 L177.756165,52.5771707 L173.78267,52.5771707 L173.78267,68.3992585 Z M173.716932,46.9401951 L177.854403,46.9401951 L177.854403,43.0178537 L173.716932,43.0178537 L173.716932,46.9401951 Z" id="Fill-20" fill="#FEFEFE" mask="url(#mask-4)"></path>
                            <path d="M181.237136,63.1254517 L184.882307,63.1254517 C185.079153,64.9053346 186.458557,65.7950907 188.396,65.7950907 C189.906142,65.7950907 190.825744,65.0703102 190.825744,64.0152078 C190.825744,60.5214322 181.795545,63.8172371 181.795545,57.0932761 C181.795545,54.0936859 184.291398,52.0828371 188.067307,52.0828371 C191.581369,52.0828371 194.371938,53.86272 194.667761,57.2912468 L190.956852,57.2912468 C190.760006,55.7745834 189.348472,55.0168078 187.936199,55.0168078 C186.786881,55.0168078 185.735801,55.6099785 185.735801,56.7636956 C185.735801,60.4224468 194.799239,56.9612956 194.799239,63.7512468 C194.799239,66.9488078 192.270517,68.8940371 188.231284,68.8940371 C184.028443,68.8940371 181.335744,66.5536078 181.237136,63.1254517" id="Fill-21" fill="#FEFEFE" mask="url(#mask-4)"></path>
                            <polygon id="Fill-22" fill="#00A396" mask="url(#mask-4)" points="66.8007955 43.0178537 70.7573011 43.0178537 70.7573011 14.339161 66.8007955 14.339161"></polygon>
                            <polygon id="Fill-23" fill="#0093D0" mask="url(#mask-4)" points="80.3691761 43.0178537 84.3256818 43.0178537 84.3256818 0 80.3691761 0"></polygon>
                            <polygon id="Fill-24" fill="#6B3E90" mask="url(#mask-4)" points="94.1240625 43.0178537 98.0805682 43.0178537 98.0805682 9.55931707 94.1240625 9.55931707"></polygon>
                            <polygon id="Fill-25" fill="#E24343" mask="url(#mask-4)" points="107.878949 43.0178537 111.835824 43.0178537 111.835824 4.7798439 107.878949 4.7798439"></polygon>
                            <polygon id="Fill-26" fill="#F2A51E" mask="url(#mask-4)" points="121.634574 43.0178537 125.59108 43.0178537 125.59108 23.8988488 121.634574 23.8988488"></polygon>
                        </g>
                    </g>
                </g>
            </g>
        </g>
    </g>
</svg>