<svg xmlns="http://www.w3.org/2000/svg" width="720" height="916.25"><path d="M356.25 279.531l-167.404 58.913L215.3 557.772l141.129 77.568 141.856-78.619 26.443-219.32-168.477-57.87z" fill="#b3b3b3"/><path d="M508.031 350.076L355.86 298.185v318.622l127.527-70.577 24.645-196.154z" fill="#af2b2d"/><path d="M207.631 351.014L230.3 547.166l125.558 69.641V298.18l-148.226 52.835z" fill="#df2e31"/><path d="M391.131 456.663l-34.995-73.08-30.807 73.08h65.802zm13.343 30.728H311.71L290.957 539.3l-38.602.714L355.86 309.755l107.112 230.258h-35.778l-22.72-52.622z" fill="#f2f2f2"/><path d="M355.859 309.755l.276 73.828 34.959 73.136h-35.156l-.08 30.625 48.613.047 22.721 52.63 36.937.685-108.27-230.951z" fill="#b3b3b3"/></svg>