<svg xmlns="http://www.w3.org/2000/svg" width="114.862" height="114.862"><path d="M112.693 52.319L62.544 2.172a7.398 7.398 0 0 0-10.461 0L41.67 12.586l13.209 13.21c3.07-1.037 6.59-.341 9.037 2.106a8.79 8.79 0 0 1 2.087 9.093l12.732 12.73c3.081-1.061 6.634-.375 9.095 2.09a8.8 8.8 0 0 1 0 12.446 8.802 8.802 0 0 1-14.366-9.572L61.59 42.815V74.06a8.863 8.863 0 0 1 2.327 1.664c3.438 3.437 3.438 9.007 0 12.45-3.437 3.435-9.011 3.435-12.446 0-3.438-3.443-3.438-9.013 0-12.45a8.79 8.79 0 0 1 2.883-1.92V42.268a8.724 8.724 0 0 1-2.883-1.92c-2.604-2.603-3.23-6.425-1.895-9.623L36.553 17.702 2.166 52.086a7.402 7.402 0 0 0 0 10.464l50.15 50.147a7.399 7.399 0 0 0 10.462 0l49.915-49.915a7.4 7.4 0 0 0 0-10.464" fill="#f03c2e"/></svg>