<?xml version="1.0" encoding="utf-8"?>
<!-- Generator: Adobe Illustrator 16.0.0, SVG Export Plug-In . SVG Version: 6.00 Build 0)  -->
<!DOCTYPE svg PUBLIC "-//W3C//DTD SVG 1.1//EN" "http://www.w3.org/Graphics/SVG/1.1/DTD/svg11.dtd">
<svg version="1.1" id="Layer_1" xmlns="http://www.w3.org/2000/svg" xmlns:xlink="http://www.w3.org/1999/xlink" x="0px" y="0px"
	 width="327px" height="86px" viewBox="0 0 327 86" enable-background="new 0 0 327 86" xml:space="preserve">
<g>
	<defs>
		<rect id="SVGID_1_" x="-151" y="-271.296" width="629.296" height="629.296"/>
	</defs>
	<clipPath id="SVGID_2_">
		<use xlink:href="#SVGID_1_"  overflow="visible"/>
	</clipPath>
	<path clip-path="url(#SVGID_2_)" fill="#BBBBBB" d="M71.774,43.627c0-5.405-0.108-9.838-0.433-14.162h8.325l0.432,8.433h0.324
		c2.919-4.974,7.784-9.623,16.433-9.623c7.135,0,12.541,4.325,14.811,10.487h0.216c1.621-2.919,3.676-5.19,5.838-6.811
		c3.135-2.379,6.595-3.676,11.568-3.676c6.919,0,17.189,4.54,17.189,22.704v30.811h-9.298V52.167
		c0-10.054-3.675-16.107-11.351-16.107c-5.406,0-9.621,4-11.243,8.648c-0.433,1.297-0.757,3.026-0.757,4.757v32.324h-9.297V50.438
		c0-8.325-3.676-14.378-10.919-14.378c-5.946,0-10.271,4.756-11.784,9.512c-0.541,1.407-0.757,3.028-0.757,4.65v31.567h-9.297
		V43.627z"/>
	<path clip-path="url(#SVGID_2_)" fill="#BBBBBB" d="M187.342,81.789l-0.757-6.596h-0.324c-2.919,4.109-8.541,7.785-16,7.785
		c-10.595,0-15.999-7.46-15.999-15.027c0-12.648,11.242-19.567,31.458-19.461v-1.08c0-4.324-1.188-12.107-11.891-12.107
		c-4.866,0-9.947,1.513-13.622,3.891l-2.163-6.27c4.325-2.811,10.595-4.649,17.19-4.649c16,0,19.891,10.919,19.891,21.406v19.567
		c0,4.541,0.217,8.974,0.866,12.541H187.342z M185.938,55.086c-10.38-0.216-22.163,1.622-22.163,11.784
		c0,6.161,4.107,9.081,8.974,9.081c6.81,0,11.134-4.324,12.648-8.758c0.323-0.972,0.541-2.053,0.541-3.026V55.086z"/>
	<path clip-path="url(#SVGID_2_)" fill="#BBBBBB" d="M217.504,14.761c0.109,3.244-2.27,5.838-6.053,5.838
		c-3.353,0-5.73-2.594-5.73-5.838c0-3.351,2.487-5.946,5.946-5.946C215.234,8.815,217.504,11.41,217.504,14.761 M206.91,29.465
		h9.514v52.324h-9.514V29.465z"/>
	<path clip-path="url(#SVGID_2_)" fill="#BBBBBB" d="M273.829,5.033v63.243c0,4.648,0.107,9.946,0.432,13.513h-8.541l-0.431-9.081
		h-0.217c-2.919,5.839-9.297,10.271-17.838,10.271c-12.648,0-22.378-10.703-22.378-26.595
		c-0.108-17.405,10.701-28.108,23.459-28.108c8,0,13.404,3.784,15.783,8h0.217V5.033H273.829z M264.315,50.762
		c0-1.189-0.107-2.812-0.433-4c-1.406-6.054-6.594-11.027-13.729-11.027c-9.838,0-15.677,8.649-15.677,20.216
		c0,10.596,5.19,19.353,15.46,19.353c6.379,0,12.217-4.217,13.946-11.353c0.325-1.296,0.433-2.594,0.433-4.107V50.762z"/>
	<path clip-path="url(#SVGID_2_)" fill="#BBBBBB" d="M315.018,81.789l-0.757-6.596h-0.324c-2.919,4.109-8.541,7.785-16,7.785
		c-10.595,0-16-7.46-16-15.027c0-12.648,11.243-19.567,31.459-19.461v-1.08c0-4.324-1.188-12.107-11.891-12.107
		c-4.866,0-9.947,1.513-13.622,3.891l-2.163-6.27c4.325-2.811,10.595-4.649,17.19-4.649c16,0,19.891,10.919,19.891,21.406v19.567
		c0,4.541,0.217,8.974,0.866,12.541H315.018z M313.613,55.086c-10.379-0.216-22.163,1.622-22.163,11.784
		c0,6.161,4.107,9.081,8.974,9.081c6.811,0,11.134-4.324,12.648-8.758c0.323-0.972,0.541-2.053,0.541-3.026V55.086z"/>
	<path clip-path="url(#SVGID_2_)" fill="#0F8CCC" d="M45.547,26.621c0.211,4.757,0.342,9.583,0.309,14.199
		c-0.112,15.347-2.055,20.363-2.647,21.535c-2.407,4.759-7.22,7.716-12.561,7.716c-2.166,0-4.259-0.493-6.224-1.469l-0.088-0.045
		c-6.907-3.5-9.683-11.968-6.188-18.877c0.593-1.172,3.482-5.71,15.778-14.894C37.624,32.024,41.589,29.27,45.547,26.621
		 M57.161,3.634L57.161,3.634l-0.016,0.032C41.066,13.936,12.951,31.152,6.547,43.812c-6.74,13.327-1.406,29.591,11.912,36.341l0,0
		c0.003,0.002,0.006,0.003,0.009,0.006c0.004,0.001,0.006,0.003,0.01,0.005l0,0v-0.001c3.908,1.973,8.071,2.908,12.17,2.908
		c9.879,0,19.397-5.43,24.161-14.848c6.404-12.66,3.61-45.51,2.355-64.547l0.016-0.032V3.643v0.001
		c-0.006,0.004-0.012,0.007-0.018,0.011C57.162,3.647,57.162,3.641,57.161,3.634L57.161,3.634"/>
</g>
</svg>
