<svg height="121" viewBox="0 0 122 121" width="122" xmlns="http://www.w3.org/2000/svg"><g fill="none" fill-rule="evenodd"><path d="m102.92588 119.936386h-83.3089161c-9.5826506 0-17.3522892-7.768193-17.3522892-17.350844v-83.3089155c0-9.5826506 7.7696386-17.35228915 17.3522892-17.35228915h83.3089161c9.58265 0 17.350843 7.76963855 17.350843 17.35228915v83.3089155c0 9.582651-7.768193 17.350844-17.350843 17.350844z" stroke="#204ac2" stroke-width="1.5"/><path d="m54.9666506 61.5361446h35.4910843l30.3614461-30.3614458" stroke="#204ac2" stroke-width="1.5"/><path d="m54.9666506 61.5361446c0 7.7002409-6.2414458 13.9431325-13.9431325 13.9431325-7.700241 0-13.9416868-6.2428916-13.9416868-13.9431325 0-7.700241 6.2414458-13.9431326 13.9416868-13.9431326 7.7016867 0 13.9431325 6.2428916 13.9431325 13.9431326"/><path d="m54.9666506 61.5361446c0 7.7002409-6.2414458 13.9431325-13.9431325 13.9431325-7.700241 0-13.9416868-6.2428916-13.9416868-13.9431325 0-7.700241 6.2414458-13.9431326 13.9416868-13.9431326 7.7016867 0 13.9431325 6.2428916 13.9431325 13.9431326z" stroke="#204ac2" stroke-width="1.5"/><path d="m65.4640482 92.6204819h-35.4910843l-21.58409643 21.5826511" stroke="#204ac2" stroke-width="1.5"/><path d="m65.4640482 92.6204819c0-7.7002409 6.2414458-13.9431325 13.9431325-13.9431325 7.700241 0 13.9416868 6.2428916 13.9416868 13.9431325 0 7.7002411-6.2414458 13.9431321-13.9416868 13.9431321-7.7016867 0-13.9431325-6.242891-13.9431325-13.9431321"/><path d="m65.4640482 92.6204819c0-7.7002409 6.2414458-13.9431325 13.9431325-13.9431325 7.700241 0 13.9416868 6.2428916 13.9416868 13.9431325 0 7.7002411-6.2414458 13.9431321-13.9416868 13.9431321-7.7016867 0-13.9431325-6.242891-13.9431325-13.9431321z" stroke="#204ac2" stroke-width="1.5"/><path d="m79.4066024 18.1626506v-17.34939759" stroke="#204ac2" stroke-width="1.5"/><path d="m79.4066024 18.1626506c7.700241 0 13.9431325 6.2414458 13.9431325 13.9431325 0 7.700241-6.2428915 13.9431326-13.9431325 13.9431326s-13.9431325-6.2428916-13.9431325-13.9431326c0-7.7016867 6.2428915-13.9431325 13.9431325-13.9431325"/><g stroke="#204ac2" stroke-width="1.5"><path d="m79.4066024 18.1626506c7.700241 0 13.9431325 6.2414458 13.9431325 13.9431325 0 7.700241-6.2428915 13.9431326-13.9431325 13.9431326s-13.9431325-6.2428916-13.9431325-13.9431326c0-7.7016867 6.2428915-13.9431325 13.9431325-13.9431325z"/><path d="m41.3008193 47.0768675v-23.1325302h-40.48192773"/></g></g></svg>