<svg height="120" viewBox="0 0 121 120" width="121" xmlns="http://www.w3.org/2000/svg"><g fill="none" fill-rule="evenodd" transform="translate(1.445783 1)"><path d="m100.885735 118.250602h-83.3074699c-9.58409643 0-17.3522892-7.769638-17.3522892-17.352289v-83.3089154c0-9.58265061 7.76819277-17.35084338 17.3522892-17.35084338h83.3074699c9.584096 0 17.352289 7.76819277 17.352289 17.35084338v83.3089154c0 9.582651-7.768193 17.352289-17.352289 17.352289z" stroke="#204ac2" stroke-width="1.5"/><path d="m99.7137831 59.2445783c0 22.3575904-18.1243373 40.4819277-40.4819277 40.4819277-22.3575903 0-40.4819277-18.1243373-40.4819277-40.4819277 0-22.3590361 18.1243374-40.4819277 40.4819277-40.4819277 22.3575904 0 40.4819277 18.1228916 40.4819277 40.4819277z" stroke="#204ac2" stroke-width="1.5"/><path d="m86.7017349 59.2445783c0 15.1706024-12.2992771 27.4698795-27.4698795 27.4698795s-27.4698795-12.2992771-27.4698795-27.4698795c0-15.1720482 12.2992771-27.4698795 27.4698795-27.4698795s27.4698795 12.2978313 27.4698795 27.4698795"/><g stroke="#204ac2" stroke-width="1.5"><path d="m86.7017349 59.2445783c0 15.1706024-12.2992771 27.4698795-27.4698795 27.4698795s-27.4698795-12.2992771-27.4698795-27.4698795c0-15.1720482 12.2992771-27.4698795 27.4698795-27.4698795s27.4698795 12.2978313 27.4698795 27.4698795z"/><path d="m59.2318554 18.7626506v11.5662651"/><path d="m59.2318554 88.160241v11.566265"/><path d="m99.7137831 59.2445783h-11.566265"/><path d="m30.3161928 59.2445783h-11.5662651"/><path d="m59.2318554 18.7626506v11.5662651"/><path d="m59.2318554 88.160241v11.566265"/><path d="m99.7137831 59.2445783h-11.566265"/><path d="m30.3161928 59.2445783h-11.5662651"/><path d="m38.9908916 24.1857831 5.7831325 10.0163856"/><path d="m73.6896867 84.2859759 5.7831326 10.0163855"/><path d="m94.2907952 39.0036145-10.0178313 5.7831325"/><path d="m34.1904578 73.7024096-10.0178313 5.7831326"/><path d="m24.1730602 39.0036145 10.0178314 5.7831325"/><path d="m84.2733976 73.7024096 10.0178313 5.7831326"/><path d="m79.4728193 24.1857831-5.7831326 10.0163856"/><path d="m44.7740241 84.2859759-5.7831325 10.0163855"/></g></g></svg>