<svg height="120" viewBox="0 0 120 120" width="120" xmlns="http://www.w3.org/2000/svg"><g fill="none" fill-rule="evenodd" transform=""><path d="m101.744096 119.096386h-83.3074695c-9.58409638 0-17.35228915-7.768193-17.35228915-17.35229v-83.3074695c0-9.58409638 7.76819277-17.35228915 17.35228915-17.35228915h83.3074695c9.584097 0 17.35229 7.76819277 17.35229 17.35228915v83.3074695c0 9.584097-7.768193 17.35229-17.35229 17.35229z" stroke="#204ac2" stroke-width="1.5"/><path d="m1.98795181 60.0903614h80.96385539" stroke="#204ac2" stroke-width="1.5"/><path d="m103.192771 60.0903614c0 5.5893976-4.5310843 10.120482-10.1204818 10.120482-5.5893976 0-10.120482-4.5310844-10.120482-10.120482 0-5.5893975 4.5310844-10.1204819 10.120482-10.1204819 5.5893975 0 10.1204818 4.5310844 10.1204818 10.1204819"/><g stroke="#204ac2" stroke-width="1.5"><path d="m103.192771 60.0903614c0 5.5893976-4.5310843 10.120482-10.1204818 10.120482-5.5893976 0-10.120482-4.5310844-10.120482-10.120482 0-5.5893975 4.5310844-10.1204819 10.120482-10.1204819 5.5893975 0 10.1204818 4.5310844 10.1204818 10.1204819z"/><path d="m50.180241 59.9209157v-20.7961446"/><path d="m16.4457831 59.9209157v-20.7961446"/><path d="m67.5296386 80.8860723v-20.7961446"/><path d="m33.7951807 80.8860723v-20.7961446"/></g></g></svg>