<svg height="120" viewBox="0 0 121 120" width="121" xmlns="http://www.w3.org/2000/svg"><g fill="none" fill-rule="evenodd" transform="translate(1)"><g stroke="#204ac2" stroke-width="1.5"><path d="m101.201928 118.849301h-83.3074702c-9.58409635 0-17.35228912-7.768193-17.35228912-17.352289v-83.3074698c0-9.58409642 7.76819277-17.35228919 17.35228912-17.35228919h83.3074702c9.584096 0 17.352289 7.76819277 17.352289 17.35228919v83.3074698c0 9.584096-7.768193 17.352289-17.352289 17.352289z"/><path d="m78.5000964 40.9308434-7.3416868 7.3416867"/><path d="m49.1311807 70.299759-7.3416867 7.3416868"/><path d="m44.8447229 32.6175904c0 6.3860241-5.1773494 11.5633735-11.5633735 11.5633735s-11.5633735-5.1773494-11.5633735-11.5633735 5.1773494-11.5633735 11.5633735-11.5633735 11.5633735 5.1773494 11.5633735 11.5633735z"/><path d="m98.7679518 32.6175904c0 6.3860241-5.1773494 11.5633735-11.5633735 11.5633735s-11.5633735-5.1773494-11.5633735-11.5633735 5.1773494-11.5633735 11.5633735-11.5633735 11.5633735 5.1773494 11.5633735 11.5633735z"/><path d="m44.8447229 86.5408193c0 6.3860241-5.1773494 11.5633735-11.5633735 11.5633735s-11.5633735-5.1773494-11.5633735-11.5633735 5.1773494-11.5633735 11.5633735-11.5633735 11.5633735 5.1773494 11.5633735 11.5633735z"/><path d="m98.7679518 86.5408193c0 6.3860241-5.1773494 11.5633735-11.5633735 11.5633735s-11.5633735-5.1773494-11.5633735-11.5633735 5.1773494-11.5633735 11.5633735-11.5633735 11.5633735 5.1773494 11.5633735 11.5633735z"/></g><path d="m75.5816386 59.5791325c0 8.4708434-6.8674699 15.3383133-15.3383133 15.3383133-8.4722892 0-15.339759-6.8674699-15.339759-15.3383133 0-8.4708433 6.8674698-15.3383132 15.339759-15.3383132 8.4708434 0 15.3383133 6.8674699 15.3383133 15.3383132"/><path d="m75.5816386 59.5791325c0 8.4708434-6.8674699 15.3383133-15.3383133 15.3383133-8.4722892 0-15.339759-6.8674699-15.339759-15.3383133 0-8.4708433 6.8674698-15.3383132 15.339759-15.3383132 8.4708434 0 15.3383133 6.8674699 15.3383133 15.3383132z" stroke="#204ac2" stroke-width="1.5"/><g transform="translate(70.843373 69.331229)"><path d="m7.65672289 8.31036145-7.34168674-7.34168675" fill="#50efff"/><path d="m7.65672289 8.31036145-7.34168674-7.34168675" stroke="#204ac2" stroke-width="1.5"/></g><path d="m49.1311807 48.2726747-7.3416867-7.3416867" stroke="#204ac2" stroke-width="1.5"/></g></svg>